<svg width="54" height="54" viewBox="0 0 54 54" fill="none" xmlns="http://www.w3.org/2000/svg">
<path d="M7.82934 53.4343C7.28814 53.1943 6.91607 52.8 6.71312 52.2514C6.544 51.7028 6.57783 51.1714 6.8146 50.6571C7.89699 48.497 8.75952 46.1998 9.40219 43.7655C10.0449 41.3312 10.5184 38.5882 10.8228 35.5367C11.1272 32.4853 11.2795 28.988 11.2795 25.0451V21.5993C11.2795 19.0964 11.6008 17.1421 12.2435 15.7363C12.92 14.2963 14.0193 13.2849 15.5414 12.702C17.0973 12.0848 19.1944 11.7763 21.8328 11.7763H29.9V8.69049C29.9 8.00476 30.1367 7.45617 30.6103 7.04474C31.0838 6.6333 31.6419 6.42758 32.2846 6.42758C32.9273 6.42758 33.4854 6.6333 33.9589 7.04474C34.4325 7.45617 34.6692 8.00476 34.6692 8.69049V11.7763H52.1228C52.6978 11.7763 53.1545 11.9991 53.4927 12.4448C53.8309 12.8563 54.0001 13.3363 54.0001 13.8849C54.0001 14.4335 53.8309 14.8963 53.4927 15.2735C53.1545 15.6506 52.6978 15.8392 52.1228 15.8392H44.8167V19.7993H51.4632C52.0044 19.7993 52.4103 19.9707 52.6809 20.3136C52.9853 20.6222 53.1375 21.0165 53.1375 21.4965C53.1375 21.9422 52.9853 22.3365 52.6809 22.6793C52.4103 23.0222 52.0044 23.1936 51.4632 23.1936H46.2373C47.252 24.0851 48.4021 25.0451 49.6874 26.0737C51.0066 27.068 52.1397 27.8566 53.0868 28.4395C53.5603 28.6795 53.8309 29.0738 53.8986 29.6223C54.0001 30.1366 53.8986 30.6166 53.5942 31.0624C53.2559 31.5081 52.8162 31.7824 52.275 31.8852C51.7676 31.9538 51.2772 31.8338 50.8036 31.5252C49.958 30.9767 48.9771 30.2224 47.8609 29.2623C46.7785 28.268 45.7638 27.2909 44.8167 26.3308V31.731C44.8167 32.3138 44.6306 32.7938 44.2586 33.171C43.8865 33.5138 43.4298 33.6853 42.8887 33.6853C42.3475 33.6853 41.8908 33.5138 41.5188 33.171C41.1467 32.7938 40.9606 32.3138 40.9606 31.731V26.6394C40.1489 27.5309 39.2863 28.4395 38.3731 29.3652C37.4598 30.2909 36.5634 31.0967 35.684 31.7824C35.2781 32.1252 34.8045 32.2967 34.2634 32.2967C33.756 32.2967 33.3332 32.091 32.9949 31.6795C32.6905 31.3024 32.5383 30.8909 32.5383 30.4452C32.5721 29.9652 32.7751 29.5709 33.1471 29.2623C33.756 28.8166 34.4494 28.2509 35.2274 27.5652C36.0053 26.8794 36.7833 26.1594 37.5613 25.4051C38.3392 24.6165 39.0157 23.8794 39.5907 23.1936H36.1406C35.6333 23.1936 35.2274 23.0222 34.9229 22.6793C34.6185 22.3365 34.4663 21.9422 34.4663 21.4965C34.4663 21.0165 34.6185 20.6222 34.9229 20.3136C35.2274 19.9707 35.6333 19.7993 36.1406 19.7993H40.9606V15.8392H28.0227V19.7993H32.3353C32.8427 19.7993 33.2486 19.9707 33.553 20.3136C33.8575 20.6222 34.0097 21.0165 34.0097 21.4965C34.0097 21.9422 33.8575 22.3365 33.553 22.6793C33.2486 23.0222 32.8427 23.1936 32.3353 23.1936H28.4286C29.1727 23.7422 29.9676 24.3422 30.8132 24.9937C31.6927 25.6108 32.3523 26.0566 32.792 26.3308C33.164 26.5709 33.3839 26.9309 33.4516 27.4109C33.553 27.8566 33.4516 28.2852 33.1471 28.6966C32.8765 29.108 32.4876 29.3309 31.9802 29.3652C31.5066 29.3995 31.0669 29.2623 30.661 28.9538C30.3566 28.748 29.9676 28.4566 29.4941 28.0795C29.0205 27.7023 28.5301 27.2909 28.0227 26.8451V31.731C28.0227 32.3138 27.8367 32.7938 27.4646 33.171C27.0925 33.5138 26.6359 33.6853 26.0947 33.6853C25.5535 33.6853 25.0969 33.5138 24.7248 33.171C24.3527 32.7938 24.1667 32.3138 24.1667 31.731V26.2794C23.3211 27.2394 22.4078 28.1995 21.4269 29.1595C20.4798 30.1195 19.5665 30.9767 18.6871 31.731C18.2812 32.0738 17.8076 32.2453 17.2664 32.2453C16.7252 32.2453 16.2855 32.0395 15.9473 31.6281C15.6767 31.2509 15.5414 30.8224 15.5414 30.3424C15.5752 29.8623 15.7781 29.4852 16.1502 29.2109C17.0297 28.5252 18.0782 27.5994 19.2959 26.4337C20.5474 25.268 21.6129 24.1879 22.4924 23.1936H18.5856C18.0782 23.1936 17.6723 23.0222 17.3679 22.6793C17.0635 22.3365 16.9113 21.9422 16.9113 21.4965C16.9113 21.0165 17.0635 20.6222 17.3679 20.3136C17.6723 19.9707 18.0782 19.7993 18.5856 19.7993H24.1667V15.8392H21.9342C20.243 15.8392 18.9238 15.9935 17.9768 16.3021C17.0635 16.6106 16.4208 17.1764 16.0487 17.9992C15.6767 18.8221 15.4906 20.0221 15.4906 21.5993V25.0451C15.4906 29.1938 15.3384 32.8967 15.034 36.1539C14.7634 39.3768 14.2899 42.2912 13.6134 44.8969C12.9369 47.5027 12.0236 49.9885 10.8736 52.3542C10.603 52.9028 10.1632 53.28 9.5544 53.4857C8.97938 53.6914 8.40436 53.6743 7.82934 53.4343ZM31.9802 54C29.9507 54 28.3779 53.8114 27.2616 53.4343C26.1454 53.0571 25.3675 52.3885 24.9277 51.4285C24.5218 50.5028 24.3189 49.2342 24.3189 47.6227C24.3189 47.1427 24.3358 46.697 24.3696 46.2855C24.4034 45.8398 24.4542 45.4455 24.5218 45.1027C23.4056 46.1655 22.2387 47.1941 21.021 48.1884C19.8033 49.1485 18.5856 50.0228 17.3679 50.8113C16.8267 51.1542 16.2517 51.2914 15.6428 51.2228C15.034 51.1885 14.5435 50.9142 14.1715 50.3999C13.8332 49.8856 13.6979 49.337 13.7656 48.7542C13.8671 48.1713 14.2053 47.7084 14.7803 47.3656C16.7422 46.2341 18.6702 44.8627 20.5643 43.2512C22.4924 41.6054 24.1667 39.9426 25.5873 38.2625H18.2812C17.74 38.2625 17.2833 38.0911 16.9113 37.7482C16.573 37.3711 16.4039 36.9082 16.4039 36.3596C16.4039 35.8453 16.573 35.3996 16.9113 35.0225C17.2833 34.6453 17.74 34.4567 18.2812 34.4567H51.7676C52.3427 34.4567 52.7993 34.6453 53.1375 35.0225C53.4758 35.3996 53.6449 35.8453 53.6449 36.3596C53.6449 36.9082 53.4758 37.3711 53.1375 37.7482C52.7993 38.0911 52.3427 38.2625 51.7676 38.2625H30.4073C29.6632 39.394 28.8007 40.5254 27.8197 41.6569C28.3609 41.4854 28.9698 41.3826 29.6463 41.3483C30.3566 41.2797 31.1346 41.2454 31.9802 41.2454H41.468C43.5313 41.2454 45.1042 41.434 46.1866 41.8112C47.3028 42.1883 48.0638 42.8398 48.4697 43.7655C48.9095 44.6912 49.1293 45.977 49.1293 47.6227C49.1293 49.2342 48.9095 50.5028 48.4697 51.4285C48.0638 52.3885 47.3028 53.0571 46.1866 53.4343C45.1042 53.8114 43.5313 54 41.468 54H31.9802ZM32.0309 50.2456H41.4173C42.7703 50.2456 43.6497 50.0742 44.0556 49.7313C44.4615 49.3885 44.6644 48.6856 44.6644 47.6227C44.6644 46.5255 44.4615 45.8227 44.0556 45.5141C43.6497 45.2055 42.7703 45.0512 41.4173 45.0512H32.0309C30.6779 45.0512 29.7985 45.2055 29.3926 45.5141C28.9867 45.8227 28.7837 46.5255 28.7837 47.6227C28.7837 48.6856 28.9867 49.3885 29.3926 49.7313C29.7985 50.0742 30.6779 50.2456 32.0309 50.2456Z" fill="black"/>
<ellipse cx="7.04681" cy="7.143" rx="7.04681" ry="7.143" fill="#FFA800"/>
</svg>
